<svg viewBox="0 0 800 600" xmlns="http://www.w3.org/2000/svg" fill="none" stroke="black" stroke-width="4">
<rect x="0" y="0" width="800" height="600" fill="white" stroke="none"/>
<line x1="0" y1="480" x2="800" y2="480"/>
<!-- barn -->
<rect x="80" y="300" width="180" height="180"/>
<polygon points="70,300 170,220 270,300"/>
<rect x="150" y="380" width="60" height="100"/>
<circle cx="120" cy="340" r="15"/>
<!-- sun -->
<circle cx="700" cy="90" r="40"/>
<!-- fence -->
<line x1="300" y1="480" x2="300" y2="420"/>
<line x1="340" y1="480" x2="340" y2="420"/>
<line x1="380" y1="480" x2="380" y2="420"/>
<line x1="420" y1="480" x2="420" y2="420"/>
<line x1="300" y1="430" x2="420" y2="430"/>
<line x1="300" y1="460" x2="420" y2="460"/>
<!-- cow -->
<ellipse cx="500" cy="440" rx="70" ry="40"/>
<circle cx="440" cy="410" r="30"/>
<circle cx="425" cy="400" r="6"/>
<line x1="425" y1="380" x2="420" y2="365"/>
<line x1="450" y1="380" x2="455" y2="365"/>
<rect x="460" y="470" width="12" height="30"/>
<rect x="530" y="470" width="12" height="30"/>
<circle cx="480" cy="440" r="6" fill="black"/>
<circle cx="510" cy="450" r="6" fill="black"/>
<!-- chicken -->
<ellipse cx="650" cy="450" rx="35" ry="30"/>
<circle cx="685" cy="425" r="16"/>
<polygon points="700,425 715,420 700,432"/>
<line x1="650" y1="480" x2="645" y2="500"/>
<line x1="655" y1="480" x2="660" y2="500"/>
<!-- clouds -->
<circle cx="150" cy="80" r="20"/>
<circle cx="175" cy="70" r="25"/>
<circle cx="205" cy="80" r="20"/>
</svg>
